<svg xmlns="http://www.w3.org/2000/svg" viewBox="0 0 512 512">
  <defs>
    <linearGradient id="bg" x1="0" y1="0" x2="1" y2="1">
      <stop offset="0%" stop-color="#0f4aa1"/>
      <stop offset="100%" stop-color="#0b6a9b"/>
    </linearGradient>
  </defs>
  <rect width="512" height="512" rx="88" fill="url(#bg)"/>

  <!-- road -->
  <rect x="80" y="360" width="352" height="40" rx="20" fill="#e2e8f0" opacity="0.25"/>
  <rect x="110" y="378" width="50" height="6" rx="3" fill="#ffffff" opacity="0.9"/>
  <rect x="190" y="378" width="50" height="6" rx="3" fill="#ffffff" opacity="0.9"/>
  <rect x="270" y="378" width="50" height="6" rx="3" fill="#ffffff" opacity="0.9"/>
  <rect x="350" y="378" width="50" height="6" rx="3" fill="#ffffff" opacity="0.9"/>

  <!-- car body -->
  <path d="M116 292h280c14 0 26 12 26 26v26c0 13-11 24-24 24H114c-13 0-24-11-24-24v-26c0-14 12-26 26-26z" fill="#0ea5e9"/>
  <path d="M156 240h200c16 0 30 10 36 25l12 27H108l12-27c6-15 20-25 36-25z" fill="#38bdf8"/>

  <!-- windows -->
  <path d="M178 252h62v34h-78l8-18c2-9 5-16 8-16z" fill="#f8fafc"/>
  <path d="M272 252h62c3 0 6 7 8 16l8 18h-78z" fill="#f8fafc"/>

  <!-- headlights -->
  <circle cx="122" cy="326" r="8" fill="#fef08a"/>
  <circle cx="390" cy="326" r="8" fill="#fef08a"/>

  <!-- wheels -->
  <circle cx="168" cy="372" r="34" fill="#0f172a"/>
  <circle cx="344" cy="372" r="34" fill="#0f172a"/>
  <circle cx="168" cy="372" r="16" fill="#94a3b8"/>
  <circle cx="344" cy="372" r="16" fill="#94a3b8"/>

  <!-- title -->
  <text x="256" y="118" text-anchor="middle" fill="#ffffff" font-family="Arial, sans-serif" font-size="40" font-weight="700">PREVENTIVA</text>
  <text x="256" y="156" text-anchor="middle" fill="#bfdbfe" font-family="Arial, sans-serif" font-size="22" font-weight="700">EQUIPES EM CAMPO</text>
</svg>
